<svg width="20" height="20" viewBox="0 0 20 20" fill="none" xmlns="http://www.w3.org/2000/svg">
<path d="M15.7032 18.9931H4.29696C2.48246 18.9931 1.00696 17.5322 1.00696 15.7363V9.70212C1.00696 9.17382 1.43566 8.74512 1.96396 8.74512C2.49226 8.74512 2.92096 9.17382 2.92096 9.70212V15.7363C2.92096 16.4765 3.53816 17.0791 4.29696 17.0791H15.7032C16.462 17.0791 17.0792 16.4766 17.0792 15.7363V9.70212C17.0792 9.17382 17.5079 8.74512 18.0362 8.74512C18.5645 8.74512 18.9932 9.17382 18.9932 9.70212V15.7363C18.9932 17.5322 17.5176 18.9931 15.7032 18.9931Z" fill="#919299"/>
<path d="M13.3331 6.23342C13.0899 6.23342 12.8468 6.14062 12.6612 5.95512L10.0001 3.29402L7.33904 5.95512C6.96794 6.32622 6.36634 6.32622 5.99524 5.95512C5.62414 5.58402 5.62414 4.98242 5.99524 4.61133L9.32824 1.27833C9.69934 0.907225 10.3009 0.907225 10.672 1.27833L14.005 4.61133C14.3761 4.98242 14.3761 5.58402 14.005 5.95512C13.8195 6.14062 13.5763 6.23342 13.3331 6.23342Z" fill="#919299"/>
<path d="M10.0001 13.7334C9.47573 13.7334 9.04993 13.3076 9.04993 12.7832V1.9502C9.04993 1.4258 9.47573 1 10.0001 1C10.5245 1 10.9503 1.4258 10.9503 1.9502V12.7832C10.9503 13.3076 10.5245 13.7334 10.0001 13.7334V13.7334Z" fill="#919299"/>
</svg>
