<svg width="18" height="17" viewBox="0 0 18 17" fill="none" xmlns="http://www.w3.org/2000/svg">
<path d="M16.9579 7.37619L3.28852 7.2547L8.9483 1.855C9.05864 1.76558 9.14958 1.65459 9.21554 1.52882C9.28151 1.40304 9.32111 1.26513 9.33194 1.12352C9.34276 0.981913 9.32458 0.839584 9.27851 0.705244C9.23243 0.570904 9.15942 0.447379 9.06396 0.342227C8.96849 0.237075 8.85258 0.152508 8.7233 0.0937001C8.59403 0.0348925 8.45411 0.00308125 8.31212 0.000212942C8.17012 -0.00265537 8.02904 0.0234796 7.89749 0.0770186C7.76595 0.130558 7.64671 0.210375 7.54708 0.311585L0.541868 6.99281C0.370115 7.16396 0.233838 7.36733 0.140852 7.59126C0.0478656 7.81519 0 8.05527 0 8.29774C0 8.54021 0.0478656 8.78029 0.140852 9.00422C0.233838 9.22815 0.370115 9.43152 0.541868 9.60267L7.51018 16.2371C7.70685 16.4322 7.97299 16.5412 8.25003 16.5401C8.52707 16.539 8.79233 16.4279 8.98745 16.2313C9.18257 16.0346 9.29157 15.7684 9.29048 15.4914C9.28938 15.2144 9.17827 14.9491 8.9816 14.754L3.27682 9.34168L16.9561 9.46048C17.2329 9.46048 17.4985 9.35049 17.6942 9.15471C17.89 8.95894 18 8.69341 18 8.41653C18 8.13966 17.89 7.87413 17.6942 7.67836C17.4985 7.48258 17.2329 7.37259 16.9561 7.37259L16.9579 7.37619Z" fill="#2E2F33"/>
</svg>
