<svg width="25" height="22" viewBox="0 0 25 22" fill="none" xmlns="http://www.w3.org/2000/svg">
<g clip-path="url(#clip0_5079_179)">
<path d="M24.3675 7.53603L20.2652 1.1886C20.1766 1.05012 20.0556 0.934966 19.9126 0.852925C19.7697 0.770884 19.6089 0.724379 19.444 0.717358H5.54279C5.38442 0.714985 5.22822 0.754207 5.08996 0.831064C4.95169 0.907922 4.83624 1.0197 4.75527 1.15511L0.648141 7.50493C0.524498 7.68518 0.466506 7.90206 0.483782 8.11961C0.501058 8.33715 0.592563 8.54228 0.743124 8.70098L11.8285 21.3922C11.9176 21.4948 12.0286 21.5763 12.1535 21.6307C12.2783 21.6851 12.4137 21.7111 12.5499 21.7068C12.685 21.7041 12.8183 21.675 12.9421 21.621C13.0659 21.567 13.1778 21.4893 13.2713 21.3922L24.2629 8.72969C24.408 8.56884 24.4966 8.36549 24.5155 8.15022C24.5343 7.93496 24.4824 7.71942 24.3675 7.53603ZM21.7777 7.09588H18.5243L19.6929 3.89167L21.7777 7.09588ZM15.7445 9.04903L12.491 17.9716L9.23873 9.04903H15.7445ZM6.45896 7.09588H3.20548L5.2903 3.89167L6.45896 7.09588ZM21.4303 9.04903L15.1782 16.2122L17.7993 9.04903H21.4303ZM14.4183 2.69682H18.0818L16.8506 6.02781L14.4183 2.69682ZM9.77496 7.09588L12.491 3.35704L15.2071 7.09588H9.77496ZM8.13259 6.02781L6.90141 2.69682H10.5649L8.13259 6.02781ZM7.18516 9.04903L9.80622 16.2122L3.55295 9.04903H7.18516Z" fill="#919299"/>
</g>
<defs>
<clipPath id="clip0_5079_179">
<rect width="25" height="22" fill="white"/>
</clipPath>
</defs>
</svg>
