<svg width="25" height="22" viewBox="0 0 25 22" fill="none" xmlns="http://www.w3.org/2000/svg">
<g clip-path="url(#clip0_5079_174)">
<path d="M12.4983 21.8918H12.4346C12.1379 21.8909 11.8447 21.828 11.5741 21.7071C11.3034 21.5861 11.0614 21.41 10.8637 21.1899L2.46702 12.5489C2.37086 12.4533 2.30716 12.3576 2.21101 12.262C0.977088 10.836 0.36176 8.98148 0.499865 7.10494C0.63797 5.2284 1.51824 3.48284 2.94779 2.25079C4.30061 1.15676 6.02183 0.616955 7.76079 0.74136C9.49976 0.865764 11.1256 1.64501 12.3072 2.92036L12.4995 3.11166L12.7242 2.88807C13.9081 1.62812 15.5265 0.859191 17.2558 0.735051C18.985 0.610912 20.6976 1.14071 22.0511 2.21851C22.0836 2.25079 22.1148 2.25079 22.1148 2.28188C22.1786 2.34525 22.2747 2.40981 22.3396 2.47318C23.0194 3.11462 23.5627 3.88549 23.937 4.73996C24.3114 5.59443 24.5092 6.51505 24.5187 7.44709C24.5533 9.33127 23.8394 11.153 22.5319 12.5167L14.1329 21.1899L14.0692 21.2533C13.6471 21.6584 13.0848 21.887 12.4983 21.8918Z" fill="#FF417D"/>
</g>
<defs>
<clipPath id="clip0_5079_174">
<rect width="25" height="22" fill="white"/>
</clipPath>
</defs>
</svg>
