<svg width="136" height="18" viewBox="0 0 136 18" fill="none" xmlns="http://www.w3.org/2000/svg">
<g clip-path="url(#clip0_3791_20985)">
<path d="M44.1882 9.92078C44.1785 9.92929 44.1701 9.94267 44.1616 9.95119C44.1616 11.2138 44.1315 11.8135 44.1098 12.6005C44.0845 13.6806 43.5322 14.5467 42.5421 14.5467C41.9476 14.5467 41.4472 14.1732 41.1723 13.5736C41.1575 13.5459 41.1442 13.5175 41.1325 13.4884C41.0161 13.2094 40.9507 12.9115 40.9395 12.609C40.8744 11.2357 40.9046 10.6518 40.9046 9.86969C40.9046 9.86969 41.1276 8.14243 41.2663 7.61938L44.1882 9.92078Z" fill="#FF1C7C"/>
<path d="M48.6656 2.68212C48.6173 2.78429 47.8215 4.33639 47.5803 4.72807C47.2957 5.2426 46.0126 7.43694 45.2216 8.60589C44.8598 9.14474 44.5234 9.67143 44.2038 10.0193L41.2627 7.6194C41.3182 7.53061 41.7149 5.51142 41.7149 5.51142C41.7149 5.51142 41.973 6.15001 42.5132 6.1342C42.8557 6.1342 43.0414 5.90309 43.2536 5.58805C43.7782 4.79862 44.2533 3.97634 44.7187 3.15529C45.0419 2.58116 45.3446 1.99364 45.7136 1.44627C46.0235 0.987697 46.4468 0.524257 47.0232 0.42573C47.321 0.380164 47.6255 0.42267 47.8999 0.548099C48.1743 0.673529 48.4067 0.876504 48.5691 1.13245C48.7035 1.3654 48.7822 1.62676 48.799 1.89578C48.8157 2.16479 48.7701 2.43403 48.6656 2.68212Z" fill="#FF1C7C"/>
<path d="M21.8325 12.8511C21.8325 13.7743 21.0836 14.5942 19.9573 14.5942H18.6514C18.6514 14.5942 18.4476 14.5942 17.9278 14.5784C15.627 14.509 16.3723 9.55957 16.3723 9.68243C16.3723 11.3598 17.7265 11.2138 18.5814 11.2224C18.7804 11.2224 19.7499 11.2297 20.0647 11.237C20.6374 11.2516 20.9088 11.3477 21.2476 11.6019C21.6359 11.8877 21.8325 12.4509 21.8325 12.8511Z" fill="#FF1C7C"/>
<path d="M97.4915 12.9496C97.966 13.4436 98.533 13.8377 99.1595 14.1092C99.7861 14.3806 100.46 14.5239 101.142 14.5309H101.207C102.584 14.539 103.907 13.995 104.886 13.0187C105.866 12.0423 106.42 10.7136 106.428 9.32479C106.436 7.93598 105.897 6.60085 104.929 5.61311C103.961 4.62536 102.644 4.06593 101.267 4.05786H101.203C99.8397 4.06406 98.5329 4.60931 97.5634 5.57653C96.5939 6.54376 96.0391 7.85585 96.0179 9.23113C96.0076 9.91843 96.1326 10.601 96.3855 11.2392C96.6385 11.8775 97.0144 12.4588 97.4915 12.9496ZM99.111 7.12801C99.463 6.78166 99.894 6.52789 100.366 6.38903C100.838 6.25018 101.337 6.23049 101.818 6.3317C102.3 6.43291 102.749 6.65192 103.127 6.96945C103.504 7.28699 103.799 7.69331 103.985 8.15267C104.17 8.61203 104.241 9.11034 104.19 9.60375C104.14 10.0972 103.97 10.5705 103.696 10.9822C103.422 11.3939 103.052 11.7313 102.618 11.9647C102.184 12.1981 101.7 12.3204 101.208 12.3207C100.811 12.319 100.419 12.2383 100.053 12.0833C99.6878 11.9284 99.356 11.7021 99.0772 11.4176C98.7984 11.1331 98.5779 10.7958 98.4286 10.4252C98.2792 10.0546 98.2037 9.65795 98.2066 9.25789C98.2102 8.86018 98.292 8.46715 98.4473 8.10155C98.6025 7.73595 98.8281 7.40504 99.111 7.12801Z" fill="#2D2D2D"/>
<path d="M28.1609 7.55371C28.1609 7.55371 27.1624 10.737 27.3168 10.7394C28.2718 10.7516 32.9482 10.7868 33.1399 10.7868C33.2159 10.7868 32.3634 8.56696 31.9992 7.55371H28.1609Z" fill="#FF1C7C"/>
<path d="M109.06 12.8947C109.534 13.3885 110.101 13.7825 110.728 14.054C111.354 14.3254 112.028 14.4688 112.71 14.476H112.775C114.152 14.484 115.475 13.9401 116.454 12.9637C117.434 11.9874 117.988 10.6587 117.996 9.26986C118.004 7.88105 117.465 6.54592 116.497 5.55817C115.529 4.57043 114.212 4.01099 112.835 4.00293H112.771C111.408 4.00913 110.101 4.55437 109.131 5.5216C108.162 6.48882 107.607 7.80092 107.586 9.1762C107.576 9.86351 107.7 10.5461 107.953 11.1844C108.206 11.8227 108.582 12.404 109.06 12.8947ZM110.677 7.07307C111.029 6.72761 111.46 6.47471 111.932 6.33661C112.404 6.1985 112.902 6.17942 113.383 6.28103C113.864 6.38265 114.313 6.60185 114.69 6.91937C115.067 7.2369 115.361 7.64303 115.547 8.10208C115.732 8.56113 115.803 9.05906 115.752 9.55209C115.702 10.0451 115.533 10.5182 115.259 10.9297C114.985 11.3412 114.615 11.6786 114.182 11.9122C113.749 12.1458 113.265 12.2685 112.774 12.2695C112.377 12.2677 111.985 12.187 111.619 12.0321C111.253 11.8771 110.922 11.6508 110.643 11.3663C110.364 11.0818 110.144 10.7446 109.994 10.374C109.845 10.0034 109.769 9.60667 109.772 9.20661C109.775 8.80828 109.857 8.41455 110.012 8.0483C110.167 7.68204 110.393 7.35054 110.677 7.07307Z" fill="#2D2D2D"/>
<path d="M73.8515 18H74.5521C75.5337 18 76.3802 17.764 77.0688 17.2969C77.7574 16.8298 78.3482 16.0051 78.8234 14.8459L82.7003 6.08794C82.8224 5.80437 82.8279 5.48346 82.7155 5.19581C82.6031 4.90815 82.3821 4.67732 82.1009 4.55409C81.8198 4.43085 81.5017 4.42531 81.2165 4.53868C80.9313 4.65206 80.7025 4.87506 80.5803 5.15863L77.8369 11.704L74.9428 5.11362C74.8822 4.9697 74.7937 4.83949 74.6823 4.73068C74.571 4.62187 74.4392 4.53667 74.2947 4.48011C74.1502 4.42355 73.9959 4.39678 73.8409 4.40139C73.686 4.40599 73.5335 4.44187 73.3926 4.50691C73.2516 4.57195 73.125 4.66483 73.0202 4.78006C72.9154 4.8953 72.8346 5.03054 72.7825 5.17781C72.7304 5.32508 72.7081 5.48139 72.7169 5.6375C72.7257 5.79362 72.7654 5.94636 72.8338 6.08672L76.6359 14.1951L76.4405 14.7096C76.2126 15.2096 76.0281 15.4042 75.7255 15.6317C75.3275 15.9309 74.7077 15.9637 74.4593 15.9637H73.8431C73.5776 15.9669 73.3241 16.0757 73.1376 16.2663C72.9511 16.4569 72.8467 16.714 72.847 16.9818C72.848 17.2506 72.9545 17.508 73.1432 17.6977C73.3319 17.8874 73.5875 17.9939 73.8539 17.9939L73.8515 18Z" fill="#2D2D2D"/>
<path d="M71.7063 8.74215C71.6136 7.90095 71.364 7.08501 70.9707 6.33736C70.5933 5.62482 70.0272 5.03193 69.3355 4.6247C68.5415 4.16748 67.6402 3.9339 66.726 3.94839C65.7774 3.93499 64.8426 4.17953 64.02 4.65632C63.2855 5.11626 62.677 5.7544 62.2498 6.51252C61.7747 7.32871 61.6022 8.1522 61.6022 9.11801C61.5833 10.0817 61.8269 11.0321 62.3065 11.8658C62.7351 12.6356 63.384 13.2571 64.1683 13.649C65.0883 14.1431 66.1131 14.4052 67.1553 14.4129C68.5264 14.4129 69.8782 13.9969 70.8634 13.272C70.9808 13.1852 71.0788 13.0745 71.151 12.9471C71.2233 12.8197 71.2683 12.6784 71.283 12.5324C71.2974 12.385 71.2809 12.2363 71.2348 12.0957C71.1887 11.9551 71.114 11.8259 71.0153 11.7162C70.8477 11.5318 70.6202 11.4141 70.374 11.3844C70.1277 11.3548 69.8791 11.4151 69.6732 11.5544C69.3715 11.7556 69.0555 11.9341 68.7278 12.0884C68.2518 12.2809 67.7441 12.3812 67.2313 12.384C66.4705 12.3826 65.7287 12.1438 65.1077 11.7004C64.5483 11.308 64.1618 10.7118 64.0297 10.0376C64.0164 9.95702 64.0071 9.87583 64.0019 9.79432H70.7729C70.9048 9.79393 71.0352 9.76554 71.1554 9.71099C71.2757 9.65644 71.3833 9.57696 71.4711 9.4777C71.5589 9.37845 71.625 9.26166 71.6651 9.13493C71.7052 9.0082 71.7184 8.87437 71.7039 8.74215H71.7063ZM63.9887 8.11449L64.0176 7.98312C64.038 7.88741 64.0658 7.79346 64.1008 7.70214C64.3227 7.13652 64.5687 6.7631 64.9112 6.47116C65.4276 6.04286 66.0806 5.81812 66.7489 5.83865C67.413 5.82172 68.0603 6.05061 68.5686 6.48211C69.0016 6.8407 69.3279 7.31301 69.5116 7.84689L69.5827 8.12666L63.9887 8.11449Z" fill="#2D2D2D"/>
<path d="M135.999 1.63478C136.004 1.48415 135.978 1.33407 135.925 1.19345C135.871 1.05283 135.79 0.924556 135.686 0.81625C135.582 0.707944 135.458 0.621821 135.32 0.563004C135.182 0.504186 135.035 0.473877 134.885 0.473877C134.736 0.473877 134.588 0.504186 134.45 0.563004C134.313 0.621821 134.188 0.707944 134.084 0.81625C133.981 0.924556 133.899 1.05283 133.846 1.19345C133.792 1.33407 133.767 1.48415 133.772 1.63478V5.05524C132.905 4.43821 131.87 4.10642 130.809 4.10525H130.746C130.064 4.10924 129.39 4.24863 128.762 4.51545C128.134 4.78227 127.564 5.17129 127.084 5.66032C126.605 6.14934 126.226 6.72878 125.969 7.36556C125.712 8.00234 125.581 8.68398 125.585 9.37157C125.589 10.0592 125.728 10.7392 125.992 11.373C126.257 12.0067 126.642 12.5816 127.127 13.065C127.612 13.5484 128.186 13.9307 128.818 14.1901C129.449 14.4496 130.125 14.5811 130.806 14.5771H130.871C132.205 14.5606 133.482 14.0262 134.435 13.0849C135.388 12.1436 135.945 10.8679 135.99 9.52301C135.996 9.46849 135.999 9.41366 135.999 9.3588V1.63478ZM130.807 12.3681C130.216 12.3678 129.637 12.191 129.145 11.8599C128.652 11.5288 128.268 11.0582 128.04 10.5073C127.812 9.95644 127.751 9.34986 127.864 8.7639C127.977 8.17795 128.259 7.63878 128.675 7.21424C129.091 6.78971 129.622 6.49875 130.202 6.37799C130.781 6.25723 131.383 6.31205 131.932 6.53556C132.481 6.75907 132.952 7.14128 133.286 7.63411C133.62 8.12694 133.802 8.70838 133.809 9.30528C133.815 9.70636 133.743 10.1047 133.595 10.477C133.446 10.8493 133.226 11.188 132.947 11.4733C132.667 11.7586 132.334 11.9847 131.967 12.1383C131.599 12.292 131.205 12.3701 130.807 12.3681Z" fill="#2D2D2D"/>
<path d="M93.2842 5.60501C92.8092 5.111 92.2418 4.71688 91.6149 4.44545C90.9879 4.17403 90.3138 4.03069 89.6316 4.02372H89.5689C88.5081 4.02409 87.4733 4.35504 86.6061 4.97128V1.55568C86.611 1.40505 86.5858 1.25497 86.5321 1.11435C86.4783 0.973731 86.3971 0.845455 86.2932 0.737149C86.1893 0.628843 86.0649 0.54272 85.9273 0.483903C85.7897 0.425086 85.6419 0.394775 85.4925 0.394775C85.3431 0.394775 85.1952 0.425086 85.0576 0.483903C84.9201 0.54272 84.7956 0.628843 84.6917 0.737149C84.5878 0.845455 84.5066 0.973731 84.4528 1.11435C84.3991 1.25497 84.3739 1.40505 84.3788 1.55568V9.42445C84.3786 9.48965 84.3838 9.55476 84.3945 9.61907C84.4821 10.9317 85.0568 12.1629 86.0042 13.0671C86.9516 13.9714 88.202 14.4823 89.5062 14.498H89.5713C90.5938 14.5004 91.5941 14.1979 92.4466 13.6284C93.2991 13.0589 93.9656 12.2479 94.3624 11.2974C94.7592 10.3469 94.8686 9.29921 94.6768 8.28616C94.4849 7.2731 94.0004 6.33987 93.2842 5.6038V5.60501ZM91.6647 11.4278C91.106 11.9815 90.3534 12.2909 89.5701 12.289C89.1738 12.2871 88.7818 12.2064 88.4164 12.0515C88.0511 11.8966 87.7196 11.6706 87.4409 11.3863C87.1623 11.1021 86.9419 10.7652 86.7924 10.3949C86.643 10.0247 86.5674 9.62836 86.5699 9.22861C86.5758 8.73097 86.7033 8.24248 86.9411 7.80642C87.1789 7.37035 87.5196 7.00016 87.9331 6.72865C88.3466 6.45713 88.8201 6.29267 89.3116 6.24982C89.8032 6.20697 90.2976 6.28707 90.7511 6.48301C91.2047 6.67895 91.6033 6.98468 91.9117 7.37314C92.2201 7.7616 92.4288 8.22078 92.5193 8.71002C92.6097 9.19926 92.5792 9.70345 92.4303 10.1779C92.2815 10.6524 92.0189 11.0826 91.6659 11.4303L91.6647 11.4278Z" fill="#2D2D2D"/>
<path d="M123.85 4.47508H123.502C121.394 4.47508 119.787 6.17801 119.787 8.30303V13.2659C119.787 13.9349 120.219 14.509 120.882 14.509C121.202 14.509 121.508 14.3808 121.735 14.1527C121.961 13.9246 122.088 13.6152 122.088 13.2926V8.68132C122.088 8.20934 122.275 7.75689 122.606 7.42326C122.937 7.08963 123.385 6.90208 123.853 6.90175C124.173 6.90175 124.48 6.7736 124.706 6.54549C124.932 6.31737 125.059 6.00798 125.059 5.68537C125.059 5.36277 124.932 5.05338 124.706 4.82526C124.48 4.59715 124.173 4.46899 123.853 4.46899L123.85 4.47508Z" fill="#2D2D2D"/>
<path d="M115.777 8.29077V13.2536C115.777 13.9238 116.268 14.47 116.87 14.47C117.472 14.47 117.964 13.9263 117.964 13.2536V9.05223" fill="#2D2D2D"/>
<path d="M53.881 13.5261V1.58365C53.881 1.26718 53.7564 0.963663 53.5345 0.739882C53.3127 0.5161 53.0118 0.390381 52.698 0.390381C52.3843 0.390381 52.0834 0.5161 51.8616 0.739882C51.6397 0.963663 51.5151 1.26718 51.5151 1.58365V13.5261C51.5151 13.8426 51.6397 14.1461 51.8616 14.3698C52.0834 14.5936 52.3843 14.7193 52.698 14.7193C53.0118 14.7193 53.3127 14.5936 53.5345 14.3698C53.7564 14.1461 53.881 13.8426 53.881 13.5261Z" fill="#2D2D2D"/>
<path d="M60.1479 12.5665L56.5918 9.13631L60.002 5.82289C60.11 5.72275 60.1961 5.6011 60.2551 5.46563C60.314 5.33017 60.3445 5.18384 60.3445 5.03589C60.3445 4.88795 60.314 4.74162 60.2551 4.60616C60.1961 4.47069 60.11 4.34904 60.002 4.2489C59.7713 4.03259 59.468 3.91235 59.1531 3.91235C58.8381 3.91235 58.5348 4.03259 58.3041 4.2489L54.1318 8.30188L53.9714 8.4746C53.8855 8.56025 53.8199 8.66433 53.7794 8.77911C53.7389 8.89388 53.7245 9.0164 53.7375 9.13753C53.738 9.28528 53.7685 9.43135 53.8272 9.56672C53.8859 9.70209 53.9715 9.82387 54.0787 9.92453L58.4488 14.1405C58.6793 14.3567 58.9824 14.4769 59.2972 14.4769C59.6119 14.4769 59.915 14.3567 60.1455 14.1405C60.2528 14.0401 60.3383 13.9184 60.3969 13.7831C60.4554 13.6478 60.4856 13.5017 60.4856 13.3541C60.4856 13.2065 60.4554 13.0604 60.3969 12.9251C60.3383 12.7898 60.2528 12.6681 60.1455 12.5677L60.1479 12.5665Z" fill="#2D2D2D"/>
<path d="M3.50305 11.8256L8.79926 8.63259C8.83205 8.60933 8.86346 8.58414 8.89332 8.55717C9.12417 8.35307 9.28468 8.0802 9.35166 7.77801C9.41865 7.47582 9.38862 7.15998 9.26594 6.87614C8.67626 5.5515 6.61301 4.65381 6.61301 4.65381C6.75843 4.73072 6.8813 4.84477 6.96933 4.98459C7.05736 5.1244 7.10747 5.28507 7.11465 5.45054C7.12189 5.72666 6.99406 6.12684 6.38269 6.48933L3.55008 8.13387L3.50305 11.8256Z" fill="#FF1C7C"/>
<path d="M35.9001 14.4481C35.0838 14.6914 34.1034 14.1696 33.7694 13.1746C32.8107 10.3197 31.2708 5.60262 31.0381 4.9105C30.9914 4.76306 30.9213 4.62422 30.8306 4.49936C30.7543 4.39233 30.6535 4.30547 30.5368 4.24617C30.4201 4.18687 30.2909 4.15689 30.1602 4.15877C29.919 4.15877 29.5331 4.26703 29.2883 4.9032C29.3426 4.67574 30.8909 -0.318723 32.5249 1.27717C33.4028 2.13593 33.9044 3.41313 34.0793 3.9228C34.8559 6.19743 36.1582 9.96213 36.9131 12.2392C37.2857 13.3643 36.6393 14.2316 35.9001 14.4481Z" fill="#FF1C7C"/>
<path d="M32.5249 1.27727C30.5267 0.658133 29.3426 4.67584 29.2883 4.9033C29.2876 4.9065 29.2876 4.90983 29.2883 4.91303L29.275 4.95074C29.0568 5.54798 28.2416 8.05616 27.4747 10.5583C27.1262 11.6956 26.8717 12.4923 26.5208 13.3559C26.1048 14.3765 25.3017 14.7134 24.4491 14.4653C23.5966 14.2171 23.0877 13.317 23.4314 12.2588C24.1718 9.97683 25.4741 6.21213 26.2447 3.93628C26.4183 3.4254 26.9791 2.07522 27.7966 1.28579C28.4486 0.69497 29.2934 0.366786 30.1698 0.36377C31.0398 0.363895 31.8789 0.689366 32.5249 1.27727Z" fill="#FF1C7C"/>
<path d="M18.4379 14.5941C16.98 14.5941 16.3723 13.6466 16.3723 10.9377L16.353 6.39693V2.12135H16.3445C16.3222 1.65657 16.1228 1.21843 15.7881 0.89823C15.4534 0.578034 15.0091 0.400493 14.5478 0.402607C14.1787 0.41025 13.8215 0.53611 13.528 0.761989C13.2345 0.987867 13.0198 1.30206 12.915 1.65913C12.9022 1.69623 12.8913 1.73399 12.8824 1.77225C12.8728 1.81482 12.8644 1.8574 12.8571 1.90119C12.846 1.97413 12.8388 2.04763 12.8354 2.12135V2.16393C12.8354 2.26975 12.8354 2.44613 12.8354 2.60912C12.8246 3.62723 12.8161 9.71521 12.8137 9.91957C12.8065 10.9803 12.7932 11.9728 13.3793 12.9848C14.0871 14.2085 15.5088 14.5978 16.394 14.5941H18.4379Z" fill="#FF1C7C"/>
<path d="M39.8374 8.65457C41.8235 11.8172 44.445 11.434 43.9 13.6113C44.1882 13.0031 44.2678 11.5179 44.2051 9.93785C44.1291 8.0111 43.0691 7.53793 42.2057 6.2656C41.1048 4.64416 39.8169 2.22965 39.3466 1.45968C39.284 1.35957 39.2155 1.26331 39.1416 1.1714C38.8233 0.748096 38.447 0.490223 37.99 0.441568C37.7669 0.417337 37.5413 0.441129 37.328 0.511372C37.1147 0.581616 36.9187 0.696712 36.7528 0.849056H36.7455C36.6731 0.919741 36.6069 0.996665 36.5478 1.07895C36.52 1.11909 36.4923 1.16288 36.4682 1.20059C36.4441 1.2383 36.4368 1.26263 36.4187 1.29303C36.4006 1.32344 36.4018 1.33074 36.3934 1.34534C36.2101 1.75769 36.2728 2.45468 36.5068 2.88893C36.5538 2.9911 37.2966 4.60645 39.8374 8.65457Z" fill="#FF1C7C"/>
<path d="M10.7202 5.58675C10.6418 6.82138 10.1377 7.70082 8.83781 8.60824C10.567 6.66203 6.61297 4.65379 6.61297 4.65379C5.94491 4.2682 5.15868 3.83638 4.9995 3.75123C4.84033 3.66609 4.39656 3.52985 4.02395 3.71718C3.86708 3.79281 3.7355 3.91296 3.64533 4.0629C3.55515 4.21285 3.5103 4.38607 3.51627 4.56134L3.55486 3.38875C3.56385 3.01507 3.61935 2.644 3.72007 2.28428C4.29045 0.338071 5.635 0.508364 5.77006 0.581347L5.81709 0.602025C6.08479 0.739476 7.59334 1.52526 8.93187 2.3901C9.38528 2.67839 10.8323 3.72082 10.7202 5.58675Z" fill="#FF1C7C"/>
<path d="M4.57942 0.12772L4.53118 0.116772C4.45039 0.0997431 4.36839 0.0827138 4.28157 0.0693337C4.19474 0.0559535 4.11154 0.0437905 4.02351 0.0340594L3.93789 0.0243282C3.78957 0.0097316 3.63642 0 3.47483 0C2.59696 0 1.25481 0.38316 0.563847 1.59589C0.0814968 2.44736 0.0163796 3.61143 0.0175855 4.58697C0.0175855 4.75483 0.0175855 4.91783 0.0175855 5.07352C0.0175855 5.27423 -0.00170898 12.9326 -0.00170898 12.9411C0.0102889 13.4029 0.200598 13.8418 0.528671 14.1641C0.856744 14.4865 1.29665 14.6669 1.75465 14.6669C2.21266 14.6669 2.65256 14.4865 2.98063 14.1641C3.3087 13.8418 3.49901 13.4029 3.51101 12.9411C3.51101 12.9301 3.56769 8.14002 3.56769 8.14002L3.5303 4.98716V4.95189C3.5303 4.81322 3.5303 4.6855 3.5303 4.57359C3.55925 0.262739 5.80459 0.610623 5.99512 0.694553C5.55112 0.441233 5.07478 0.250514 4.57942 0.12772Z" fill="#FF1C7C"/>
</g>
<defs>
<clipPath id="clip0_3791_20985">
<rect width="136" height="18" fill="white"/>
</clipPath>
</defs>
</svg>
