<svg width="18" height="18" viewBox="0 0 18 18" fill="none" xmlns="http://www.w3.org/2000/svg">
<path d="M17.732 16.3067L14.32 12.8982C15.4277 11.5086 16.0211 9.7796 16 8.00338C16.0027 6.19723 15.3928 4.44344 14.2698 3.02792C13.1468 1.6124 11.5769 0.618635 9.81602 0.208634C8.05518 -0.201367 6.20722 -0.00342296 4.57342 0.770195C2.93962 1.54381 1.61634 2.84748 0.81929 4.46867C0.0222445 6.08985 -0.201552 7.93294 0.184385 9.69747C0.570322 11.462 1.54323 13.0439 2.9445 14.1853C4.34578 15.3266 6.09277 15.9602 7.90068 15.9826C9.70859 16.005 11.4708 15.415 12.9 14.3088L16.284 17.7132C16.4731 17.8975 16.7271 18.0005 16.9913 18C17.2556 17.9995 17.5091 17.8955 17.6975 17.7105C17.8859 17.5254 17.9942 17.2739 17.9992 17.01C18.0041 16.746 17.9053 16.4907 17.724 16.2987L17.732 16.3067ZM2.012 8.01537C2.012 6.82992 2.36389 5.6711 3.02318 4.68544C3.68247 3.69978 4.61954 2.93155 5.7159 2.4779C6.81226 2.02425 8.01866 1.90556 9.18254 2.13682C10.3464 2.36809 11.4155 2.93894 12.2546 3.77717C13.0938 4.61541 13.6652 5.68339 13.8967 6.84605C14.1282 8.00872 14.0094 9.21385 13.5553 10.3091C13.1012 11.4043 12.3321 12.3404 11.3454 12.999C10.3587 13.6576 9.19869 14.0091 8.012 14.0091C7.2234 14.0091 6.44253 13.8538 5.71405 13.5521C4.98557 13.2504 4.32378 12.8081 3.76653 12.2507C3.20927 11.6933 2.76748 11.0316 2.46642 10.3035C2.16537 9.57541 2.01095 8.79515 2.012 8.00737V8.01537Z" fill="#2E2F33"/>
</svg>
