<svg width="24" height="25" viewBox="0 0 24 25" fill="none" xmlns="http://www.w3.org/2000/svg">
<g clip-path="url(#clip0_5079_183)">
<path d="M9.90843 24.4879C9.55603 24.4867 9.21629 24.3562 8.95356 24.1209C8.69083 23.8857 8.52335 23.5621 8.48283 23.2115L8.14083 20.7824C7.74068 20.595 7.3559 20.3764 6.99003 20.1285L4.72083 21.0312C4.38766 21.1602 4.01937 21.1651 3.68288 21.0451C3.3464 20.9251 3.06407 20.6882 2.88723 20.3773L0.675626 16.548C0.510211 16.2426 0.456378 15.8889 0.52341 15.5479C0.590441 15.2069 0.774135 14.9001 1.04283 14.6802L2.97603 13.1574C2.95013 12.9405 2.93971 12.722 2.94483 12.5036C2.93971 12.2747 2.95013 12.0458 2.97603 11.8185L1.04283 10.3209C0.756743 10.0989 0.563715 9.77796 0.501562 9.42089C0.439409 9.06383 0.512612 8.69639 0.706826 8.39057L2.91363 4.59129C3.08844 4.27845 3.37064 4.03976 3.70785 3.91951C4.04505 3.79927 4.41436 3.80564 4.74723 3.93744L7.01643 4.84009C7.3823 4.59222 7.76708 4.3736 8.16723 4.18624L8.50923 1.75716C8.55791 1.40349 8.73273 1.07942 9.00138 0.844797C9.27004 0.610174 9.61439 0.480851 9.97083 0.480713H14.3544C14.711 0.48042 15.0557 0.609775 15.3243 0.844755C15.5928 1.07973 15.7672 1.40437 15.8148 1.75836L16.1628 4.18624C16.563 4.3736 16.9478 4.59222 17.3136 4.84009L19.5828 3.93744C19.916 3.80849 20.2843 3.80356 20.6208 3.92355C20.9573 4.04353 21.2396 4.28047 21.4164 4.59129L23.6184 8.42182C23.7972 8.72711 23.861 9.08641 23.7983 9.43473C23.7356 9.78305 23.5504 10.0974 23.2764 10.3209L21.3492 11.8461C21.3803 12.2919 21.3803 12.7393 21.3492 13.185L23.2764 14.6802C23.5531 14.9012 23.7425 15.2134 23.8108 15.5612C23.8792 15.909 23.822 16.2697 23.6496 16.5793L21.4428 20.4098C21.268 20.7226 20.9858 20.9613 20.6486 21.0816C20.3114 21.2018 19.9421 21.1954 19.6092 21.0636L17.34 20.161C16.9742 20.4089 16.5894 20.6275 16.1892 20.8148L15.8472 23.2439C15.7939 23.5955 15.6177 23.9168 15.35 24.1505C15.0824 24.3843 14.7407 24.5153 14.3856 24.5204L9.90843 24.4891V24.4879ZM7.11003 18.1358C7.31242 18.1306 7.51024 18.1965 7.66923 18.3221C8.17011 18.7192 8.72487 19.043 9.31683 19.2836C9.46677 19.3414 9.59811 19.4391 9.69666 19.5662C9.79521 19.6933 9.85723 19.8449 9.87603 20.0048L10.2492 22.5889H13.98L14.3532 20.0048C14.372 19.8449 14.434 19.6933 14.5326 19.5662C14.6311 19.4391 14.7625 19.3414 14.9124 19.2836C15.5044 19.043 16.0591 18.7192 16.56 18.3221C16.688 18.2276 16.8377 18.167 16.9952 18.146C17.1528 18.125 17.3131 18.1442 17.4612 18.2019L19.8864 19.1634L21.7512 15.8942L19.6992 14.2752C19.5708 14.1729 19.4715 14.0384 19.4115 13.8854C19.3514 13.7325 19.3327 13.5663 19.3572 13.4038C19.4504 12.7742 19.4504 12.1343 19.3572 11.5048C19.3327 11.3422 19.3514 11.1761 19.4115 11.0231C19.4715 10.8701 19.5708 10.7357 19.6992 10.6334L21.7512 9.01437L19.8828 5.74393L17.4576 6.70547C17.3097 6.76425 17.1492 6.78406 16.9914 6.76302C16.8336 6.74198 16.6839 6.68079 16.5564 6.58528C16.0458 6.24527 15.5046 5.95355 14.94 5.71389C14.7901 5.6561 14.6587 5.55838 14.5602 5.43129C14.4616 5.30419 14.3996 5.15255 14.3808 4.99273L14.0076 2.37735H10.2504L9.87723 4.96148C9.85843 5.1213 9.79641 5.27294 9.69786 5.40004C9.59931 5.52713 9.46797 5.62485 9.31803 5.68264C8.72607 5.92325 8.17131 6.24701 7.67043 6.64418C7.54249 6.73864 7.39279 6.79919 7.23524 6.82021C7.07769 6.84122 6.91739 6.82201 6.76923 6.76437L4.34403 5.80283L2.48283 9.07086L4.53483 10.6898C4.66327 10.7922 4.76252 10.9266 4.82256 11.0796C4.8826 11.2326 4.90132 11.3987 4.87683 11.5612C4.84563 11.8725 4.81443 12.2151 4.81443 12.5228C4.81443 12.8305 4.84563 13.1454 4.87683 13.4843C4.89411 13.6464 4.87203 13.8103 4.81249 13.962C4.75294 14.1137 4.65769 14.2488 4.53483 14.3557L2.48283 15.9218L4.34763 19.1911L6.77283 18.2295C6.87706 18.174 6.99215 18.142 7.11003 18.1358ZM12.1464 17.2944C11.1994 17.2944 10.2737 17.0132 9.48636 16.4862C8.69897 15.9592 8.08528 15.2103 7.72289 14.334C7.3605 13.4577 7.26568 12.4934 7.45043 11.5632C7.63517 10.6329 8.09119 9.77838 8.7608 9.10769C9.43041 8.437 10.2836 7.98026 11.2123 7.79522C12.1411 7.61017 13.1038 7.70514 13.9787 8.06812C14.8536 8.43109 15.6014 9.04576 16.1275 9.83441C16.6536 10.6231 16.9344 11.5502 16.9344 12.4987C16.9344 13.7707 16.43 14.9907 15.5321 15.8902C14.6342 16.7898 13.4164 17.2953 12.1464 17.2956V17.2944ZM12.1464 9.57206C11.5685 9.57206 11.0036 9.74371 10.523 10.0653C10.0425 10.3869 9.66801 10.844 9.44685 11.3787C9.22569 11.9135 9.16782 12.502 9.28057 13.0697C9.39332 13.6374 9.67161 14.1589 10.0803 14.5682C10.4889 14.9775 11.0096 15.2563 11.5764 15.3692C12.1432 15.4821 12.7307 15.4242 13.2646 15.2026C13.7986 14.9811 14.2549 14.606 14.576 14.1247C14.8971 13.6434 15.0684 13.0776 15.0684 12.4987C15.0687 12.1144 14.9934 11.7337 14.8466 11.3786C14.6999 11.0234 14.4846 10.7007 14.2132 10.429C13.9418 10.1572 13.6196 9.9418 13.2649 9.79496C12.9103 9.64812 12.5302 9.57279 12.1464 9.57326V9.57206Z" fill="#919299"/>
</g>
<defs>
<clipPath id="clip0_5079_183">
<rect width="24" height="25" fill="white"/>
</clipPath>
</defs>
</svg>
