<svg width="25" height="23" viewBox="0 0 25 23" fill="none" xmlns="http://www.w3.org/2000/svg">
<g clip-path="url(#clip0_5051_160)">
<path d="M15.7022 22.0446H9.14051C8.89484 22.0446 8.65924 21.9473 8.48553 21.7742C8.31182 21.6011 8.21423 21.3663 8.21423 21.1214C8.21423 20.8766 8.31182 20.6418 8.48553 20.4686C8.65924 20.2955 8.89484 20.1982 9.14051 20.1982H15.7022C15.9479 20.1982 16.1835 20.2955 16.3572 20.4686C16.5309 20.6418 16.6285 20.8766 16.6285 21.1214C16.6285 21.3663 16.5309 21.6011 16.3572 21.7742C16.1835 21.9473 15.9479 22.0446 15.7022 22.0446Z" fill="#919299"/>
<path d="M20.4968 10.5011V18.8235C20.496 19.1884 20.35 19.5381 20.0908 19.7959C19.8316 20.0536 19.4804 20.1984 19.1143 20.1984H16.6178V14.419C16.6178 13.8403 16.3873 13.2852 15.977 12.8757C15.5667 12.4662 15.0101 12.2358 14.4295 12.235H10.9716C10.391 12.2358 9.83439 12.4662 9.4241 12.8757C9.01381 13.2852 8.78336 13.8403 8.78336 14.419V20.1984H6.27159C5.90544 20.1976 5.55457 20.052 5.29595 19.7937C5.03734 19.5354 4.8921 19.1854 4.8921 18.8204V10.4981C4.79138 10.4981 4.69067 10.4981 4.5869 10.4981C4.05879 10.5197 3.53167 10.4359 3.0365 10.2517V18.8235C3.03731 19.6784 3.37841 20.498 3.98493 21.1025C4.59145 21.707 5.41384 22.047 6.27159 22.0478H9.69589C9.93872 22.0478 10.1716 21.9516 10.3433 21.7805C10.515 21.6094 10.6115 21.3773 10.6115 21.1352V14.4433C10.6083 14.3953 10.6155 14.3473 10.6325 14.3023C10.6495 14.2574 10.6759 14.2165 10.71 14.1825C10.7441 14.1486 10.785 14.1222 10.8302 14.1053C10.8753 14.0884 10.9235 14.0812 10.9716 14.0844H14.4295C14.5188 14.0852 14.6042 14.1211 14.6671 14.1843C14.7299 14.2476 14.7652 14.333 14.7652 14.422V21.114C14.7652 21.356 14.8617 21.5881 15.0334 21.7592C15.2051 21.9304 15.438 22.0265 15.6808 22.0265H19.1143C19.9715 22.0257 20.7934 21.6861 21.3999 21.0823C22.0063 20.4785 22.3477 19.6596 22.3494 18.8052V10.0996C21.775 10.3851 21.1382 10.5231 20.4968 10.5011Z" fill="#919299"/>
<path d="M24.0952 4.85255C23.6156 3.91585 23.0387 3.03193 22.3739 2.21531C22.0598 1.77958 21.6522 1.41914 21.1808 1.16025C20.7093 0.901354 20.1858 0.750527 19.6485 0.71875H5.34389C4.80663 0.752363 4.28353 0.904293 3.81226 1.1636C3.34099 1.42291 2.93328 1.78314 2.61848 2.21836C1.96854 3.04502 1.39353 3.92756 0.90022 4.85559C0.668874 5.31191 0.53004 5.80921 0.491656 6.31904C0.453272 6.82887 0.516091 7.34124 0.676522 7.82686C0.836952 8.31248 1.09185 8.76182 1.42663 9.1492C1.76142 9.53657 2.16953 9.85437 2.62763 10.0844C2.76082 10.1475 2.89735 10.2034 3.0366 10.2517V8.12248C2.69537 7.82878 2.46146 7.43063 2.37145 6.99033C2.28143 6.55002 2.3404 6.09239 2.53913 5.68905C2.98049 4.85784 3.49742 4.06874 4.08342 3.33165L4.11089 3.29515C4.26251 3.08135 4.45952 2.90347 4.68792 2.77414C4.91632 2.64481 5.1705 2.56721 5.43239 2.54687H19.56C19.8218 2.56582 20.0763 2.6425 20.3048 2.77138C20.5333 2.90026 20.7303 3.07812 20.8815 3.29211C20.893 3.30965 20.9063 3.32596 20.9211 3.34078C21.5107 4.06278 22.0222 4.8448 22.4471 5.67384C22.6109 5.99631 22.6857 6.3564 22.6638 6.71717C22.6477 7.06238 22.5426 7.39762 22.3586 7.69055V10.0997C22.8196 9.87012 23.2304 9.55198 23.5675 9.16353C23.9045 8.77509 24.1611 8.32402 24.3226 7.83631C24.484 7.34859 24.547 6.83387 24.508 6.32179C24.4689 5.8097 24.3286 5.31037 24.0952 4.85255Z" fill="#919299"/>
<path d="M20.4328 8.65461H20.2833C19.3802 8.70924 18.4916 8.40893 17.8081 7.81812H15.0247C14.3393 8.40869 13.4473 8.70503 12.5435 8.64244H12.4123C11.5084 8.70503 10.6164 8.40869 9.93101 7.81812H7.15067C6.52363 8.35809 5.72086 8.65218 4.89221 8.64548V10.4888C6.25241 10.5014 7.56478 9.98912 8.55457 9.05917C9.07922 9.55114 9.6988 9.93159 10.3756 10.1774C11.0525 10.4231 11.7724 10.5291 12.4916 10.4888C13.2108 10.5286 13.9306 10.4224 14.6073 10.1766C15.2841 9.93087 15.9037 9.5507 16.4287 9.05917C17.4134 9.9853 18.7157 10.5021 20.0696 10.504C20.1765 10.504 20.2863 10.504 20.3962 10.504H20.5091V8.65765H20.4328V8.65461Z" fill="#919299"/>
<path d="M17.4327 7.45946C17.3483 7.34734 17.245 7.25061 17.1275 7.17353C16.8573 6.99088 16.5271 6.9187 16.205 6.97192C15.8829 7.02514 15.5937 7.19968 15.3971 7.45946C15.2818 7.58794 15.1574 7.7079 15.0247 7.8184H17.8081C17.6737 7.70879 17.5482 7.58877 17.4327 7.45946Z" fill="#919299"/>
<path d="M9.55558 7.45945C9.43773 7.30151 9.28445 7.17323 9.10798 7.08485C8.93152 6.99647 8.73677 6.95044 8.53928 6.95044C8.34179 6.95044 8.14704 6.99647 7.97057 7.08485C7.79411 7.17323 7.64083 7.30151 7.52297 7.45945C7.40789 7.58806 7.28343 7.70803 7.15063 7.81838H9.93098C9.79725 7.708 9.67178 7.58804 9.55558 7.45945Z" fill="#919299"/>
<path d="M4.59007 10.4982C4.69079 10.4982 4.7915 10.4982 4.89527 10.4982V8.65487C4.82507 8.65487 4.75793 8.65487 4.68774 8.65487H4.50767C4.14463 8.67234 3.78344 8.59362 3.46084 8.42674C3.30791 8.34383 3.16635 8.24159 3.03967 8.12256V10.2518C3.53261 10.4317 4.05648 10.5124 4.58092 10.4891L4.59007 10.4982Z" fill="#919299"/>
<path d="M21.9771 8.14383C21.7769 8.32304 21.5429 8.46078 21.2888 8.54903C21.0347 8.63729 20.7655 8.67429 20.4969 8.65789V10.5012C21.1383 10.5232 21.7751 10.3852 22.3494 10.0997V7.70581C22.2457 7.8679 22.1205 8.01524 21.9771 8.14383Z" fill="#919299"/>
</g>
<defs>
<clipPath id="clip0_5051_160">
<rect width="25" height="23" fill="white"/>
</clipPath>
</defs>
</svg>
