<svg width="12" height="11" viewBox="0 0 12 11" fill="none" xmlns="http://www.w3.org/2000/svg">
<path d="M10.9998 1.73153L10.0003 0.00219727H2.00256L1.00311 1.73153L0.00366211 3.46528L6.00182 10.418L12 3.46528L10.9998 1.73153Z" fill="#A0CEFF"/>
<path d="M2.00256 3.46528H0.00366211L1.00311 1.73153L2.00256 0.00219727L3.00274 1.73153L3.99851 3.46528H2.00256Z" fill="#5AABFF"/>
<path d="M6.00184 3.4646H8.00147L7.00129 6.94389L6.00184 10.4202L5.00239 6.94389L4.00073 3.4646H6.00184Z" fill="#439FFF"/>
<path d="M2.00258 3.4646H3.99853L5.99816 10.4173L0 3.4646H2.00258Z" fill="#2E94FF"/>
<path d="M10.0004 3.4646H12L6.00183 10.4173L8.00146 3.4646H10.0004Z" fill="#2E94FF"/>
<path d="M6.00184 3.46529H4.00073L5.00239 1.73154L6.00184 0L7.00129 1.73154L8.00073 3.46308L6.00184 3.46529Z" fill="#5AABFF"/>
<path d="M10.0004 3.46529H8.00073L9.00018 1.73154L9.99963 0L10.9991 1.73154L11.9985 3.46308L10.0004 3.46529Z" fill="#5AABFF"/>
<path d="M8.00073 0.00219727H10.0004L9.00091 1.73153L8.00073 3.46528L7.00128 1.73153L6.00183 0.00219727H8.00073Z" fill="#8CC4FF"/>
<path d="M3.99925 0.00219727H5.99888L5.00164 1.73153L3.99925 3.46528L3.00201 1.73153L2.00256 0.00219727H3.99925Z" fill="#8CC4FF"/>
</svg>
