<svg width="12" height="12" viewBox="0 0 12 12" fill="none" xmlns="http://www.w3.org/2000/svg">
<path d="M12 6.00005C12 7.18674 11.6481 8.34678 10.9888 9.33347C10.3295 10.3202 9.39246 11.0892 8.29611 11.5433C7.19975 11.9975 5.99335 12.1163 4.82946 11.8848C3.66557 11.6532 2.59648 11.0818 1.75736 10.2427C0.918248 9.40357 0.346802 8.33448 0.115291 7.17059C-0.11622 6.00671 0.0025997 4.8003 0.456726 3.70395C0.910851 2.60759 1.67989 1.67052 2.66658 1.01123C3.65328 0.351943 4.81332 4.97774e-05 6 4.97774e-05C6.79012 -0.00780947 7.57387 0.142019 8.30537 0.440764C9.03687 0.739509 9.70144 1.18117 10.2602 1.73989C10.8189 2.29862 11.2605 2.96318 11.5593 3.69468C11.858 4.42619 12.0079 5.20993 12 6.00005Z" fill="#AAABB3"/>
<path d="M9.71997 5.88004C9.60923 5.7762 9.46919 5.70898 9.31891 5.68751C9.16862 5.66604 9.01536 5.69136 8.87997 5.76004L6.59997 7.68004V2.64004C6.59997 2.48091 6.53676 2.3283 6.42424 2.21577C6.31172 2.10325 6.1591 2.04004 5.99997 2.04004C5.84084 2.04004 5.68823 2.10325 5.57571 2.21577C5.46319 2.3283 5.39997 2.48091 5.39997 2.64004V7.68004L3.11997 5.76004C3.05694 5.71276 2.98521 5.67836 2.90888 5.65881C2.83255 5.63925 2.75312 5.63492 2.67512 5.64607C2.59712 5.65721 2.52208 5.68361 2.45428 5.72375C2.38648 5.7639 2.32725 5.817 2.27997 5.88004C2.2327 5.94307 2.1983 6.0148 2.17875 6.09113C2.15919 6.16746 2.15486 6.24689 2.166 6.32489C2.17715 6.40289 2.20354 6.47793 2.24369 6.54573C2.28383 6.61353 2.33694 6.67276 2.39997 6.72004L5.63997 9.48004C5.74383 9.55793 5.87015 9.60004 5.99997 9.60004C6.12979 9.60004 6.25611 9.55793 6.35997 9.48004L9.59997 6.72004C9.70381 6.60929 9.77103 6.46926 9.7925 6.31897C9.81397 6.16868 9.78865 6.01543 9.71997 5.88004Z" fill="white"/>
</svg>
